<svg width="338" height="60" viewBox="0 0 338 60" fill="none" xmlns="http://www.w3.org/2000/svg">
<g clip-path="url(#clip0_90_558)">
<path d="M62.4198 21.1765C62.4198 21.1765 58.0762 9.7861 53.4108 5.93583C48.6806 2.10386 42.774 0.00834094 36.6797 0V5.13369C41.558 5.14346 46.2809 6.84577 50.0382 9.94859C53.7955 13.0514 56.3529 17.3613 57.2718 22.139L57.9153 25.6684L61.4545 26.3102C64.9764 26.9726 68.1267 28.9141 70.296 31.7589C72.4653 34.6038 73.4995 38.1499 73.1985 41.7112C72.891 45.2929 71.2219 48.6217 68.5331 51.016C65.8707 53.3931 62.4524 54.7566 58.8805 54.8663H36.6797V60H58.8805C63.7597 59.9566 68.4534 58.13 72.0723 54.8663C75.6132 51.5236 77.8386 47.0283 78.3465 42.1925C78.816 37.3003 77.3754 32.4159 74.3246 28.5561C71.4119 24.7085 67.1688 22.0782 62.4198 21.1765ZM15.7658 49.5722H31.5316V54.7059H15.7658V49.5722ZM5.3089 49.5722H10.4569V54.7059H5.3089V49.5722ZM10.6178 39.1444H31.5316V44.2781H10.6178V39.1444ZM0 39.1444H5.14803V44.2781H0V39.1444ZM15.7658 28.7166H31.5316V33.8503H15.7658V28.7166ZM5.3089 28.7166H10.4569V33.8503H5.3089V28.7166ZM20.9139 18.2888H31.3708V23.4225H20.9139V18.2888ZM10.6178 18.2888H15.7658V23.4225H10.6178V18.2888ZM26.2227 7.86096H31.3708V12.9947H26.2227V7.86096Z" fill="#7571F9"/>
<path d="M98.1342 25.6685C97.1114 26.0646 96.1807 26.6651 95.3993 27.4332C94.6185 28.1771 93.9663 29.0444 93.4688 30.0001C93.0442 30.9605 92.8249 31.9986 92.8249 33.0482C92.8249 34.0978 93.0442 35.1359 93.4688 36.0963C93.9663 37.052 94.6185 37.9193 95.3993 38.6632C96.2076 39.3971 97.1316 39.9933 98.1342 40.4279C99.2038 40.8719 100.354 41.0904 101.513 41.0696H110.039L113.256 44.2781H101.513C99.9246 44.2596 98.3497 43.9889 96.8472 43.476C95.4183 42.9262 94.1079 42.1094 92.9861 41.0696C91.8497 40.0223 90.9218 38.7704 90.2512 37.3797C89.615 36.0239 89.2852 34.5452 89.2852 33.0482C89.2852 31.5512 89.615 30.0725 90.2512 28.7166C90.8656 27.293 91.8016 26.0302 92.9861 25.0268C94.0654 23.933 95.3882 23.1085 96.8472 22.6204C98.3497 22.1075 99.9246 21.8367 101.513 21.8182H113.256L110.039 25.0268H101.513C100.362 25.0849 99.2254 25.3008 98.1342 25.6685Z" fill="#7571F9" stroke="#7571F9" stroke-miterlimit="10"/>
<path d="M134.653 44.2781H116.635V21.8182L119.853 25.1872V40.9091H131.275L134.653 44.2781Z" fill="#7571F9" stroke="#7571F9" stroke-miterlimit="10"/>
<path d="M159.106 37.5401C158.431 38.9711 157.441 40.2322 156.21 41.2299C155.013 42.3323 153.584 43.1544 152.028 43.6363C148.789 44.7058 145.292 44.7058 142.053 43.6363C140.555 43.0285 139.148 42.2189 137.871 41.2299C136.686 40.1876 135.705 38.9368 134.975 37.5401C134.281 36.0836 133.898 34.4994 133.849 32.8876C133.82 31.2664 134.207 29.6648 134.975 28.2352C135.65 26.8042 136.64 25.5431 137.871 24.5454C139.068 23.443 140.497 22.6209 142.053 22.139C143.647 21.549 145.342 21.2764 147.04 21.3368C148.734 21.3556 150.414 21.626 152.028 22.139C153.543 22.711 154.955 23.5236 156.21 24.5454C157.441 25.5431 158.431 26.8042 159.106 28.2352C159.445 28.9568 159.714 29.7089 159.911 30.4812C160.097 31.2709 160.204 32.0769 160.232 32.8876C160.216 33.6465 160.108 34.4005 159.911 35.1336C159.84 35.9885 159.564 36.8139 159.106 37.5401ZM147.201 41.3903C148.517 41.4125 149.825 41.195 151.062 40.7486C152.183 40.3552 153.219 39.7567 154.119 38.9839C154.993 38.288 155.706 37.4125 156.21 36.4171C156.739 35.4296 157.015 34.3276 157.015 33.2085C157.015 32.0894 156.739 30.9874 156.21 29.9999C155.743 28.891 155.028 27.9033 154.119 27.1122C153.196 26.3725 152.165 25.7774 151.062 25.3475C149.832 24.8751 148.519 24.6568 147.201 24.7058C145.886 24.6837 144.577 24.9011 143.34 25.3475C142.203 25.7027 141.159 26.3055 140.284 27.1122C139.414 27.876 138.704 28.8026 138.192 29.8395C137.7 30.8404 137.426 31.9339 137.388 33.0481C137.406 34.1649 137.682 35.2626 138.192 36.2566C138.707 37.2455 139.418 38.1191 140.284 38.8235C141.184 39.5963 142.22 40.1948 143.34 40.5882C144.558 41.1177 145.873 41.3908 147.201 41.3903Z" fill="#7571F9" stroke="#7571F9" stroke-miterlimit="10"/>
<path d="M186.938 32.8878C186.959 34.3869 186.628 35.8701 185.972 37.2193C185.36 38.6029 184.486 39.8557 183.398 40.9091C182.284 41.9979 180.974 42.8685 179.537 43.476C178.112 44.0652 176.575 44.3389 175.033 44.2781C173.497 44.2596 171.975 43.9885 170.528 43.476C169.092 42.8685 167.782 41.9979 166.667 40.9091C165.615 39.8263 164.745 38.5801 164.093 37.2193C163.517 35.8496 163.243 34.3724 163.289 32.8878V21.8182L166.506 25.1872V32.8878C166.471 33.9924 166.691 35.0904 167.15 36.0963C167.549 37.0685 168.152 37.9438 168.92 38.6632C169.701 39.4312 170.632 40.0318 171.654 40.4279C172.674 40.8515 173.768 41.0696 174.872 41.0696C175.976 41.0696 177.07 40.8515 178.09 40.4279C179.092 39.9933 180.016 39.3971 180.824 38.6632C181.608 37.9575 182.214 37.0783 182.594 36.0963C183.053 35.0904 183.273 33.9924 183.238 32.8878V24.3851L186.455 21.8182V32.8878H186.938Z" fill="#7571F9" stroke="#7571F9" stroke-miterlimit="10"/>
<path d="M190.155 44.2781V21.8182H207.369C208.957 21.8367 210.532 22.1075 212.034 22.6204C213.493 23.1085 214.816 23.933 215.895 25.0268C217.032 26.0741 217.96 27.326 218.63 28.7166C219.272 30.0707 219.602 31.5506 219.596 33.0482C219.616 34.5473 219.286 36.0305 218.63 37.3797C217.975 38.7795 217.045 40.0341 215.895 41.0696C214.816 42.1634 213.493 42.9879 212.034 43.476C210.532 43.9889 208.957 44.2596 207.369 44.2781H190.155ZM193.534 25.0268V40.9091H207.53C208.691 40.9604 209.848 40.7406 210.908 40.2674C211.931 39.8714 212.862 39.2708 213.643 38.5027C214.424 37.7589 215.076 36.8916 215.574 35.9359C215.998 34.9755 216.218 33.9374 216.218 32.8878C216.218 31.8381 215.998 30.8 215.574 29.8396C215.076 28.8839 214.424 28.0167 213.643 27.2728C212.835 26.5388 211.911 25.9426 210.908 25.5081C209.839 25.064 208.688 24.8456 207.53 24.8664H193.534V25.0268Z" fill="#7571F9" stroke="#7571F9" stroke-miterlimit="10"/>
<path d="M250.645 44.2781H232.466V21.8182L235.683 25.1872V40.9091H247.105L250.645 44.2781Z" fill="#7571F9" stroke="#7571F9" stroke-miterlimit="10"/>
<path d="M268.341 27.9145L257.723 44.2781H253.862L268.502 21.8182L281.694 44.2781H277.993L268.341 27.9145Z" fill="#7571F9" stroke="#7571F9" stroke-miterlimit="10"/>
<path d="M307.755 31.7648C308.568 32.4164 309.227 33.2379 309.686 34.1712C310.145 35.1204 310.365 36.1663 310.33 37.2193C310.365 38.1696 310.143 39.1119 309.686 39.9466C309.359 40.7843 308.866 41.548 308.238 42.1926C307.555 42.8164 306.799 43.3551 305.986 43.7968C305.135 44.2017 304.189 44.3681 303.251 44.2781H284.911V21.8182H303.251C304.079 21.8224 304.898 21.9858 305.664 22.2995C306.41 22.5764 307.113 22.9543 307.755 23.4225C308.36 23.9376 308.845 24.5772 309.178 25.2973C309.511 26.0173 309.683 26.8008 309.683 27.5936C309.683 28.3865 309.511 29.1699 309.178 29.89C308.845 30.6101 308.36 31.2497 307.755 31.7648ZM303.251 41.0696C303.748 41.0398 304.236 40.9315 304.699 40.7487C305.162 40.5403 305.595 40.2705 305.986 39.9466C306.345 39.5824 306.619 39.1444 306.79 38.6632C306.973 38.2019 307.082 37.7145 307.112 37.2193C307.082 36.7241 306.973 36.2367 306.79 35.7755C306.581 35.3135 306.311 34.8818 305.986 34.492C305.621 34.1342 305.181 33.8604 304.699 33.6899C304.236 33.5072 303.748 33.3989 303.251 33.369H293.116L295.851 30.1605H303.412C304.229 30.1387 305.018 29.8577 305.664 29.3583C305.953 29.161 306.191 28.8982 306.359 28.5915C306.527 28.2848 306.62 27.9429 306.629 27.5936C306.652 27.4194 306.634 27.2424 306.578 27.0758C306.523 26.9092 306.43 26.7572 306.308 26.6311C306.187 26.3006 305.961 26.0188 305.664 25.8289C305.342 25.6685 305.021 25.3476 304.699 25.3476C304.285 25.2076 303.847 25.153 303.412 25.1872H288.45V41.23H303.251V41.0696Z" fill="#7571F9" stroke="#7571F9" stroke-miterlimit="10"/>
<path d="M333.174 31.9251C333.945 32.219 334.655 32.6543 335.265 33.2086C335.889 33.7951 336.382 34.5056 336.713 35.2941C337.028 36.0578 337.192 36.8749 337.196 37.7005V37.861C337.207 38.6881 337.043 39.5083 336.713 40.2674C336.382 41.0559 335.889 41.7664 335.265 42.353C334.635 42.9241 333.932 43.4096 333.174 43.7968C332.3 44.1253 331.373 44.2885 330.439 44.2781H315.156L318.534 41.0695H330.439C330.943 41.1179 331.45 41.0056 331.887 40.7487C332.311 40.6335 332.698 40.4126 333.013 40.107C333.327 39.8275 333.598 39.5031 333.817 39.1444C334.018 38.7456 334.128 38.3073 334.139 37.861V37.7005C334.108 37.2572 334 36.8227 333.817 36.4171C333.755 36.2111 333.651 36.0197 333.513 35.8543C333.375 35.6889 333.205 35.553 333.013 35.4546C332.698 35.1489 332.311 34.928 331.887 34.8128C331.424 34.6301 330.936 34.5218 330.439 34.492H320.304C319.371 34.4883 318.446 34.3256 317.569 34.0107C316.797 33.7169 316.088 33.2816 315.477 32.7273C314.869 32.1278 314.378 31.4206 314.03 30.6417C313.715 29.878 313.551 29.0609 313.547 28.2353C313.536 27.4082 313.7 26.588 314.03 25.8289C314.361 25.0404 314.854 24.3299 315.477 23.7433C316.072 23.1685 316.786 22.7305 317.569 22.4599C318.443 22.1314 319.37 21.9682 320.304 21.9786H335.104L331.726 25.1872H320.304C319.816 25.1611 319.326 25.2153 318.856 25.3476C318.432 25.4628 318.044 25.6836 317.73 25.9893C317.415 26.2688 317.144 26.5932 316.925 26.9519C316.724 27.3507 316.614 27.789 316.604 28.2353C316.634 28.6787 316.743 29.1132 316.925 29.5187C317.144 29.8774 317.415 30.2018 317.73 30.4813C318.044 30.787 318.432 31.0078 318.856 31.123C319.326 31.2553 319.816 31.3095 320.304 31.2834H330.439C331.39 31.2655 332.33 31.4862 333.174 31.9251Z" fill="#7571F9" stroke="#7571F9" stroke-miterlimit="10"/>
</g>
<defs>
<clipPath id="clip0_90_558">
<rect width="338" height="60" fill="white"/>
</clipPath>
</defs>
</svg>
